{"title":"I Spit On Your Grave 2 2013 BRRip 480p x264 AAC - VYTO [P2PDL]","uid":8890627,"size":372645775,"categoryP":"video","categoryS":"movies","magnet":"?xt=urn:btih:78b56f98fcd4aa5b18bd962b12a2ed8766c93445&amp;dn=I+Spit+On+Your+Grave+2+2013+BRRip+480p+x264+AAC+-+VYTO+%5BP2PDL%5D&amp;tr=udp%3A%2F%2Ftracker.openbittorrent.com%3A80&amp;tr=udp%3A%2F%2Fopen.demonii.com%3A1337&amp;tr=udp%3A%2F%2Ftracker.coppersurfer.tk%3A6969&amp;tr=udp%3A%2F%2Fexodus.desync.com%3A6969","seeders":0,"leechers":1,"uploader":"ValidusVyto","files":-1,"time":1378575436,"description":"_______ Visit us at our Semi Public Bittorrent Community ________\n  &lt;a href=&quot;\nhttp://p2pdl.com&quot; rel=&quot;nofollow&quot; target=&quot;_NEW&quot;&gt;\nhttp://p2pdl.com&lt;/a&gt;  _____________________________ &lt;a href=&quot; http://p2pdl.com&quot; rel=&quot;nofollow&quot; target=&quot;_NEW&quot;&gt; http://p2pdl.com&lt;/a&gt;\n\n\n\nI Spit On Your Grave 2 2013 BRRip 480p x264 AAC - VYTO\n\n\nGenre: Crime | Horror | Thriller\nPlot: Katie is trying to make it in the cutthroat world of modeling. When she\ninnocently accepts an offer to have new photos taken for her portfolio, the\nexperience quickly turns into an ... \nDirector: Steven R. Monroe\nStars:Jemma Dallender, Joe Absolom, Yavor Baharov.\nRated: R for strong sadistic violence, torture and rape, graphic nudity, language\nand some drug content.\n\n\nInfo: &lt;a href=&quot;\nhttp://www.imdb.com/title/tt2537176/&quot; rel=&quot;nofollow&quot; target=&quot;_NEW&quot;&gt;\nhttp://www.imdb.com/title/tt2537176/&lt;/a&gt;\n\n\nFormat                         : MPEG-4\nFile size                      : 351 MiB\nDuration                       : 1h 46mn\nOverall bit rate mode          : Variable\nOverall bit rate               : 462 Kbps\n\nVideo\nFormat                         : AVC\nBit rate                       : 419 Kbps\nMaximum bit rate               : 2 420 Kbps\nWidth                          : 720 pixels\nHeight                         : 304 pixels\nDisplay aspect ratio           : 2.35:1\nFrame rate mode                : Constant\nFrame rate                     : 23.976 fps\nBit depth                      : 10 bits\nStream size                    : 318 MiB (91%)\nWriting library                : x264 core 138 r2358\n\nAudio\nFormat                         : AAC\nBit rate mode                  : Variable\nBit rate                       : 39.5 Kbps\nChannel(s)                     : 2 channels\nChannel positions              : Front: L R\nSampling rate                  : 48.0 KHz\nStream size                    : 30.0 MiB (9%)\nLanguage                       : English\n\nSubtitle                       : Yes(English)\n\nSource                         : UNRATED.720p.BluRay.x264-PublicHD\n &lt;a href=&quot;\nhttp://ultraimg.com/images/n1il3.png&quot; rel=&quot;nofollow&quot; target=&quot;_NEW&quot;&gt;\nhttp://ultraimg.com/images/n1il3.png&lt;/a&gt; &lt;a href=&quot;\nhttp://ultraimg.com/images/4upFz.png&quot; rel=&quot;nofollow&quot; target=&quot;_NEW&quot;&gt;\nhttp://ultraimg.com/images/4upFz.png&lt;/a&gt; &lt;a href=&quot;\nhttp://ultraimg.com/images/YeHUt.png&quot; rel=&quot;nofollow&quot; target=&quot;_NEW&quot;&gt;\nhttp://ultraimg.com/images/YeHUt.png&lt;/a&gt; &lt;a href=&quot;\nhttp://ultraimg.com/images/raFBP.png&quot; rel=&quot;nofollow&quot; target=&quot;_NEW&quot;&gt;\nhttp://ultraimg.com/images/raFBP.png&lt;/a&gt; &lt;a href=&quot;\nhttp://ultraimg.com/images/Zlwzy.png&quot; rel=&quot;nofollow&quot; target=&quot;_NEW&quot;&gt;\nhttp://ultraimg.com/images/Zlwzy.png&lt;/a&gt; &lt;a href=&quot;\nhttp://ultraimg.com/images/7skjU.png&quot; rel=&quot;nofollow&quot; target=&quot;_NEW&quot;&gt;\nhttp://ultraimg.com/images/7skjU.png&lt;/a&gt;\n\n\n----------------------------------------------------------------------------------------------------\n\n\nEncoded using revolutionary 10bit encoding, which enables us to provide you more crispier \nand sharper images at small sizes, just make sure you follow our instructions without a fault.\nRecommend to you to use latest version of VLC player. Install K-Lite Codec Pack or shark007 codecs\nin case of any kind of problem in playback (For non-VLC Media Player users). Alternatively, install\nCore AVC codecs, the fastest decoder that there is coupled with Community Center Codec Pack and play\non Windows Media Player Classic. Check sample to be sure.\nEnjoy!\n\nEncoder Notes:Looking For Early Access To Anything You Can Provide DVDScr, R5, DVDR, BluRay, Direct\nAudio, Music Releases and Seedboxes. We require dedicated servers, so as to do more \nand fast releases of movies.\nIf You Got anything to offer please contact us at &quot;&lt;a class=&quot;__cf_email__&quot; href=&quot;/cdn-cgi/l/email-protection&quot; data-cfemail=&quot;0f7f7d684f677a7c67216c6062&quot;&gt;[email&amp;#160;protected]&lt;/a&gt;&lt;script cf-hash='f9e31' type=&quot;text/javascript&quot;&gt;\n/* &lt;![CDATA[ */!function(){try{var t=&quot;currentScript&quot;in document?document.currentScript:function(){for(var t=document.getElementsByTagName(&quot;script&quot;),e=t.length;e--;)if(t[e].getAttribute(&quot;cf-hash&quot;))return t[e]}();if(t&amp;&amp;t.previousSibling){var e,r,n,i,c=t.previousSibling,a=c.getAttribute(&quot;data-cfemail&quot;);if(a){for(e=&quot;&quot;,r=parseInt(a.substr(0,2),16),n=2;a.length-n;n+=2)i=parseInt(a.substr(n,2),16)^r,e+=String.fromCharCode(i);e=document.createTextNode(e),c.parentNode.replaceChild(e,c)}}}catch(u){}}();/* ]]&gt; */&lt;/script&gt;&quot;.\n\nFace book Fan Page:  \nSearch P2PDL on FB and hit like!!!\n\nFor more of our team uploads visit @                                          &lt;a href=&quot;\nhttp://thepiratebay.se/user/vitamin_x&quot; rel=&quot;nofollow&quot; target=&quot;_NEW&quot;&gt;\nhttp://thepiratebay.se/user/vitamin_x&lt;/a&gt;\t","torrent":{"xt":"urn:btih:78b56f98fcd4aa5b18bd962b12a2ed8766c93445","amp;dn":"I+Spit+On+Your+Grave+2+2013+BRRip+480p+x264+AAC+-+VYTO+%5BP2PDL%5D","amp;tr":["udp%3A%2F%2Ftracker.openbittorrent.com%3A80","udp%3A%2F%2Fopen.demonii.com%3A1337","udp%3A%2F%2Ftracker.coppersurfer.tk%3A6969","udp%3A%2F%2Fexodus.desync.com%3A6969"],"infoHash":"78b56f98fcd4aa5b18bd962b12a2ed8766c93445","infoHashBuffer":{"type":"Buffer","data":[120,181,111,152,252,212,170,91,24,189,150,43,18,162,237,135,102,201,52,69]},"announce":[],"urlList":[]}}